<?xml version="1.0" encoding="UTF-8" standalone="no"?>
<!-- Created with Inkscape (http://www.inkscape.org/) -->

<svg
   xmlns:dc="http://purl.org/dc/elements/1.1/"
   xmlns:cc="http://creativecommons.org/ns#"
   xmlns:rdf="http://www.w3.org/1999/02/22-rdf-syntax-ns#"
   xmlns:svg="http://www.w3.org/2000/svg"
   xmlns="http://www.w3.org/2000/svg"
   xmlns:sodipodi="http://sodipodi.sourceforge.net/DTD/sodipodi-0.dtd"
   xmlns:inkscape="http://www.inkscape.org/namespaces/inkscape"
   width="179.54041mm"
   height="27.086327mm"
   viewBox="0 0 179.54041 27.086327"
   version="1.1"
   id="svg8"
   sodipodi:docname="bytescarelogo.svg"
   inkscape:version="0.92.3 (d244b95, 2018-08-02)">
  <defs
     id="defs2">
    <style
       id="style4290">.cls-1{fill:#ffa300;}.cls-2{fill:#4f4f4f;}</style>
  </defs>
  <sodipodi:namedview
     id="base"
     pagecolor="#ffffff"
     bordercolor="#666666"
     borderopacity="1.0"
     inkscape:pageopacity="0.0"
     inkscape:pageshadow="2"
     inkscape:zoom="0.87896257"
     inkscape:cx="221.64136"
     inkscape:cy="-36.211826"
     inkscape:document-units="mm"
     inkscape:current-layer="layer1"
     showgrid="false"
     inkscape:window-width="1853"
     inkscape:window-height="1025"
     inkscape:window-x="67"
     inkscape:window-y="27"
     inkscape:window-maximized="1"
     inkscape:snap-center="true"
     inkscape:snap-page="true"
     inkscape:pagecheckerboard="true"
     fit-margin-top="0"
     fit-margin-left="0"
     fit-margin-right="0"
     fit-margin-bottom="0" />
  <metadata
     id="metadata5">
    <rdf:RDF>
      <cc:Work
         rdf:about="">
        <dc:format>image/svg+xml</dc:format>
        <dc:type
           rdf:resource="http://purl.org/dc/dcmitype/StillImage" />
        <dc:title></dc:title>
      </cc:Work>
    </rdf:RDF>
  </metadata>
  <g
     inkscape:label="Layer 1"
     inkscape:groupmode="layer"
     id="layer1"
     transform="translate(-17.847631,-106.27084)">
    <g
       id="g4326"
       transform="matrix(0.18135394,0,0,0.18809949,14.58326,28.209548)">
      <path
         id="path4296"
         d="m 746.51,465.85 a 25.19,25.19 0 0 0 -13.45,-13.44 25.24,25.24 0 0 0 -19.6,0 25.19,25.19 0 0 0 -13.46,13.44 24.79,24.79 0 0 0 -2,9.8 v 25.23 h 50.45 v -25.23 a 24.63,24.63 0 0 0 -1.94,-9.8 z m 122.69,0 a 25.23,25.23 0 0 0 -13.4,-13.44 24.3,24.3 0 0 0 -9.76,-2 h -25.22 v 50.45 H 846 a 24.29,24.29 0 0 0 9.76,-2 25.52,25.52 0 0 0 8,-5.41 25.22,25.22 0 0 0 5.4,-8 25.24,25.24 0 0 0 0,-19.6 z m 0,0 a 25.23,25.23 0 0 0 -13.4,-13.44 24.3,24.3 0 0 0 -9.76,-2 h -25.22 v 50.45 H 846 a 24.29,24.29 0 0 0 9.76,-2 25.52,25.52 0 0 0 8,-5.41 25.22,25.22 0 0 0 5.4,-8 25.24,25.24 0 0 0 0,-19.6 z m -122.69,0 a 25.19,25.19 0 0 0 -13.45,-13.44 25.24,25.24 0 0 0 -19.6,0 25.19,25.19 0 0 0 -13.46,13.44 24.79,24.79 0 0 0 -2,9.8 v 25.23 h 50.45 v -25.23 a 24.63,24.63 0 0 0 -1.94,-9.8 z M 624.17,415 A 69.17,69.17 0 0 0 555,484.17 v 5.7 A 69.13,69.13 0 0 0 624.13,559 H 1008 V 415 Z m 26.33,33.76 -23.19,0.11 a 39.75,39.75 0 0 0 0,79.26 l 23.19,0.11 v 23.26 h -23.19 a 63,63 0 0 1 0,-126 H 650.5 Z M 773.71,551.24 H 748.49 V 526 H 698 v 25.23 h -25.1 v -75.58 a 49.06,49.06 0 0 1 4,-19.64 51.22,51.22 0 0 1 10.76,-16 50.39,50.39 0 0 1 16,-10.81 50.71,50.71 0 0 1 39.29,0 50.58,50.58 0 0 1 26.81,26.8 49.22,49.22 0 0 1 3.95,19.64 z m 121.07,-62.93 a 51.7,51.7 0 0 1 -4.66,11.69 49.47,49.47 0 0 1 -7.42,10.19 50.74,50.74 0 0 1 -9.85,8.09 l 14,33 H 860 l -11,-25.4 -28.21,0.17 v 25.23 H 795.6 v -126 H 846 a 49.19,49.19 0 0 1 13.4,1.72 50.32,50.32 0 0 1 12,5.09 51.64,51.64 0 0 1 10.2,7.91 50.6,50.6 0 0 1 13,22.28 50.1,50.1 0 0 1 0.18,26 z M 998.5,551.5 h -86 v -25 h 86 z m 0,-51 h -86 v -25 h 86 z m 0,-50 h -86 v -25 h 86 z m -134.7,7.31 a 25.49,25.49 0 0 0 -8,-5.4 24.3,24.3 0 0 0 -9.76,-2 h -25.22 v 50.45 H 846 a 24.29,24.29 0 0 0 9.76,-2 25.52,25.52 0 0 0 8,-5.41 25.22,25.22 0 0 0 5.4,-8 25.24,25.24 0 0 0 0,-19.6 25.44,25.44 0 0 0 -5.36,-8.04 z m -122.7,0 a 25.22,25.22 0 0 0 -8,-5.4 25.24,25.24 0 0 0 -19.6,0 25.19,25.19 0 0 0 -13.5,13.44 24.79,24.79 0 0 0 -2,9.8 v 25.23 h 50.45 v -25.23 a 24.63,24.63 0 0 0 -2,-9.8 25.47,25.47 0 0 0 -5.35,-8.04 z m 128.1,8 a 25.23,25.23 0 0 0 -13.4,-13.44 24.3,24.3 0 0 0 -9.76,-2 h -25.22 v 50.45 H 846 a 24.29,24.29 0 0 0 9.76,-2 25.52,25.52 0 0 0 8,-5.41 25.22,25.22 0 0 0 5.4,-8 25.24,25.24 0 0 0 0,-19.6 z m 0,0 a 25.23,25.23 0 0 0 -13.4,-13.44 24.3,24.3 0 0 0 -9.76,-2 h -25.22 v 50.45 H 846 a 24.29,24.29 0 0 0 9.76,-2 25.52,25.52 0 0 0 8,-5.41 25.22,25.22 0 0 0 5.4,-8 25.24,25.24 0 0 0 0,-19.6 z"
         class="cls-1"
         inkscape:connector-curvature="0"
         style="fill:#ffa300" />
      <path
         id="path4298"
         d="m 193.22,550 h -25 V 510.76 A 48.81,48.81 0 0 1 153,504 50,50 0 0 1 133.33,478.7 49.25,49.25 0 0 1 130.58,462.22 v -37.55 h 25.08 v 37.58 a 24.46,24.46 0 0 0 2,9.75 25,25 0 0 0 13.34,13.37 25.13,25.13 0 0 0 19.49,0 25,25 0 0 0 13.34,-13.37 24.46,24.46 0 0 0 2,-9.75 v -37.58 h 25 v 37.58 A 49.27,49.27 0 0 1 228,478.72 50.27,50.27 0 0 1 208.42,504 a 48.29,48.29 0 0 1 -15.21,6.73 z"
         class="cls-2"
         inkscape:connector-curvature="0"
         style="fill:#4f4f4f" />
      <path
         id="path4300"
         d="m 300.46,550 h -25 V 449.75 H 237.79 V 424.67 H 338 v 25.08 h -37.54 z"
         class="cls-2"
         inkscape:connector-curvature="0"
         style="fill:#4f4f4f" />
      <path
         id="path4302"
         d="m 446.07,462.25 a 36.12,36.12 0 0 1 3,-14.6 38.19,38.19 0 0 1 20,-20 36.14,36.14 0 0 1 14.6,-3 h 57.51 v 25.08 h -57.53 a 12.39,12.39 0 0 0 -12.5,12.5 12.74,12.74 0 0 0 1,4.94 12.25,12.25 0 0 0 6.64,6.69 12.41,12.41 0 0 0 4.89,1 h 25.08 a 36.92,36.92 0 0 1 14.64,2.93 37.4,37.4 0 0 1 20,20 38,38 0 0 1 0,29.24 37.8,37.8 0 0 1 -8,11.93 38.23,38.23 0 0 1 -12,8.08 36.43,36.43 0 0 1 -14.64,3 h -62.7 v -25.12 h 62.67 a 12.5,12.5 0 1 0 0,-25 h -25.08 a 36.12,36.12 0 0 1 -14.6,-3 38.07,38.07 0 0 1 -20,-20.06 36.42,36.42 0 0 1 -2.98,-14.61 z"
         class="cls-2"
         inkscape:connector-curvature="0"
         style="fill:#4f4f4f" />
      <rect
         id="rect4304"
         height="25"
         width="86"
         y="424"
         x="350"
         class="cls-2"
         style="fill:#4f4f4f" />
      <rect
         id="rect4306"
         height="25"
         width="86"
         y="474"
         x="350"
         class="cls-2"
         style="fill:#4f4f4f" />
      <rect
         id="rect4308"
         height="25"
         width="86"
         y="525"
         x="350"
         class="cls-2"
         style="fill:#4f4f4f" />
      <path
         id="path4310"
         d="m 125,503 c 0,51 -39,47 -39,47 H 18 v -23 h 60.5 c 0,0 22.5,0 22.5,-24 0,-7 -8,-17 -15,-18 -11.27,-1.61 -27.92,-1 -30,-1 0,-26 3,-37 -15,-36 v 53 H 18 v -77 c 69,0 62,12 64,37 4,1 43,0 43,42 z"
         class="cls-2"
         inkscape:connector-curvature="0"
         style="fill:#4f4f4f" />
    </g>
  </g>
</svg>
